<?xml version="1.0" encoding="utf-8"?>
<!-- Generator: Adobe Illustrator 19.2.0, SVG Export Plug-In . SVG Version: 6.00 Build 0)  -->
<svg version="1.1" id="Layer_1" xmlns="http://www.w3.org/2000/svg" xmlns:xlink="http://www.w3.org/1999/xlink" x="0px" y="0px"
	 viewBox="0 0 301.9 190.9" style="enable-background:new 0 0 301.9 190.9;" xml:space="preserve">
<style type="text/css">
	.st0{fill:#CD1E2A;}
</style>
<g>
	<path d="M83,104.2c-1.6,7.1-4.7,12.5-9.3,16.3c-4.7,3.8-10.3,5.6-16.7,5.6c-5.8-0.1-10.7-1.6-14.6-4.4c-4-2.7-6.8-5.8-8.6-9.3
		c-0.5-1.2-1-2.3-1.5-3.3c-0.4-1.1-0.7-2.4-1-4.1c-0.5-3.1-0.8-9-0.8-17.7c0-8.9,0.3-14.8,0.8-17.8s1.4-5.4,2.5-7.3
		c1.8-3.5,4.7-6.7,8.6-9.4c3.9-2.8,8.7-4.2,14.6-4.3c7.1,0.1,13,2.3,17.5,6.5c4.5,4.3,7.3,9.7,8.5,16.1H71.1c-0.9-3.1-2.6-5.7-5-7.9
		c-2.5-2.1-5.6-3.1-9.1-3.2c-2.6,0.1-4.9,0.6-6.8,1.6c-1.9,1.1-3.5,2.4-4.7,3.9c-1.5,1.6-2.4,3.8-2.9,6.4c-0.5,2.7-0.8,7.9-0.8,15.4
		s0.3,12.6,0.8,15.3s1.4,4.8,2.9,6.5c1.2,1.6,2.7,2.9,4.7,3.8c1.9,1.2,4.2,1.7,6.8,1.7c6.3,0,11-3.5,14.1-10.4L83,104.2L83,104.2z"
		/>
	<path d="M119.5,120.7h-0.2c-1,1.9-2.5,3.2-4.6,4.1c-2,0.9-4.8,1.4-8.4,1.4c-5.9-0.1-10.4-1.7-13.6-4.8c-3.3-3.1-5-7-5-11.8
		c0-4.6,1.5-8.4,4.4-11.4c2.9-3.1,7.2-4.6,12.8-4.7h14.7v-5.7c0.1-4.8-3.5-7.1-10.8-7c-2.6,0-4.7,0.3-6.2,0.8
		c-1.6,0.7-2.8,1.8-3.8,3.4l-8.3-6.6c4-5.4,10-8.1,17.8-7.9c6.6-0.1,11.9,1.2,15.9,3.9s6,7.4,6,14v37.1h-10.6L119.5,120.7
		L119.5,120.7z M119.5,102.4h-12.7c-6.2,0.1-9.2,2.3-9.1,6.6c0,1.9,0.8,3.4,2.4,4.7c1.5,1.4,4,2.1,7.6,2.1c4.4,0.1,7.6-0.5,9.4-1.6
		c1.7-1.2,2.5-3.8,2.5-7.9v-3.9H119.5z"/>
	<path d="M145.5,71.1h10.6v5.8h0.2c3.5-4.3,8.1-6.4,13.7-6.4c4.2,0.1,7.9,1.5,11.1,4.2l-7.7,9.4c-2.2-1.8-4.6-2.7-7-2.7
		c-2.7,0-5,0.9-7,2.7c-2.2,1.8-3.3,4.7-3.4,8.7v32.7h-10.6L145.5,71.1L145.5,71.1z"/>
	<path d="M193.2,102.4c0,4.4,1.2,7.7,3.7,10c2.3,2.3,5.2,3.5,8.9,3.5c4.3,0,8.1-1.8,11.5-5.3l7.7,6.8c-5.4,5.9-11.7,8.9-19,8.8
		c-2.8,0-5.5-0.4-8.1-1.3c-1.3-0.5-2.6-1.1-3.9-1.8s-2.6-1.5-3.7-2.5c-2.2-2-4-4.9-5.4-8.5c-1.5-3.5-2.3-8-2.3-13.6
		c0-5.4,0.7-9.8,2-13.4c1.3-3.6,3-6.5,5.1-8.6s4.4-3.7,7-4.6c2.6-0.9,5.1-1.4,7.6-1.4c6,0.1,11.1,2.1,15.3,6.1
		c4.2,4.1,6.4,9.7,6.4,16.9v9L193.2,102.4L193.2,102.4z M215.5,93.4c-0.1-4.2-1.2-7.5-3.3-9.6c-2-2.1-4.6-3.1-7.8-3.1
		c-3.2,0-5.8,1-7.8,3.1c-2,2.2-3.1,5.4-3.3,9.6H215.5z"/>
</g>
<g>
	<rect x="234.3" y="93.7" width="16.3" height="11.5"/>
</g>
<path class="st0" d="M243.5,38.4c-0.4-2.6-1.7-4.9-3-7.2c-1.4-2.2-2.9-4.3-4.6-6.3c-3.4-3.9-7.2-7.5-11.4-10.4
	c-4.2-2.9-8.8-5.2-13.6-6.8c-4.8-1.5-9.8-2.3-14.8-2.1c-5,0.1-9.9,1.1-14.6,2.7s-9.2,3.8-13.5,6.5c-2.1,1.3-4.2,2.8-6.2,4.3
	s-4,3.1-5.9,4.8s-3.8,3.4-5.6,5.2c-1.8,1.8-3.6,3.6-5.3,5.5l-3.1,3.4l-3.1-3.6c-1-1.1-2.3-2.5-3.6-3.7c-1.3-1.2-2.6-2.4-4-3.5
	s-2.8-2.2-4.3-3.3c-1.5-1-3-2-4.5-3c-1.5-0.9-3.1-1.8-4.7-2.6c-1.6-0.8-3.2-1.6-4.8-2.3c-1.6-0.7-3.3-1.4-5-1.9
	c-1.7-0.6-3.4-1.1-5.1-1.6c-1.7-0.5-3.4-0.9-5.2-1.2c-1.7-0.3-3.5-0.6-5.2-0.8l-2.6-0.3l-2.6-0.1c-1.8-0.1-3.5,0-5.3,0
	c-1.8,0.2-3.5,0.2-5.3,0.5L74,10.9l-2.6,0.5c-1.7,0.3-3.5,0.8-5.2,1.2c-1.7,0.4-3.4,1-5.1,1.5l-0.2,0.1h-0.2
	c-1.7,0.5-3.4,0.9-5.1,1.5c-1.7,0.6-3.3,1.3-4.9,2c-1.6,0.7-3.2,1.6-4.7,2.5c-1.5,0.9-3,1.9-4.5,2.9c-1.4,1-2.9,2.1-4.2,3.3
	c-1.4,1.2-2.7,2.4-3.9,3.6c-1.3,1.3-2.5,2.6-3.6,4c-1.2,1.4-2.2,2.8-3.3,4.3c-2.1,2.9-4,6-5.6,9.3c-0.8,1.6-1.6,3.3-2.3,4.9
	c-0.7,1.7-1.4,3.4-2,5.1c-0.6,1.7-1.2,3.5-1.7,5.2c-0.5,1.8-1,3.5-1.4,5.3s-0.8,3.6-1.2,5.4c-0.4,1.8-0.7,3.6-0.9,5.5l0.1-0.5
	c-0.4,7.8-0.1,15.6,1.2,23.2c1.3,7.6,3.7,14.9,7.3,21.6c3.5,6.7,8.1,12.9,13.6,18.4c5.5,5.4,11.8,10.1,18.5,14.1
	c6.8,4,14,7.4,21.4,10.3s15.1,5.4,22.9,7.6c7.8,2.1,15.7,4.1,23.7,5.9c8,1.9,16,3.5,24.1,5.7l-1.7,0.1c14.9-5.8,29.7-11.9,44.5-18
	c7.4-3.1,14.8-6.2,22.1-9.5c3.7-1.6,7.3-3.3,10.9-5c1.8-0.8,3.6-1.8,5.4-2.7c1.8-0.9,3.5-1.9,5.3-2.9c-1.7,1.1-3.3,2.3-5,3.3
	s-3.4,2.1-5.2,3.1c-3.5,2-7,3.9-10.6,5.8c-7.1,3.7-14.3,7.3-21.5,10.8s-14.5,6.9-21.8,10.3s-14.6,6.7-21.9,10l-0.8,0.3l-1-0.2
	c-7.9-1.6-16-2.9-24.1-4.3s-16.3-2.9-24.4-4.8c-8.1-1.9-16.2-4.1-24.1-6.9c-7.9-2.8-15.8-6.1-23.2-10.3c-7.4-4.2-14.6-9.2-20.9-15.2
	c-6.3-6-11.9-13-16-20.8s-7-16.2-8.5-24.8c-1.6-8.6-2-17.3-1.6-25.8v-0.3v-0.2c0.3-2,0.6-4,1-6s0.8-4,1.3-6s1-4,1.6-5.9
	c0.6-2,1.2-3.9,2-5.8c0.7-1.9,1.5-3.8,2.3-5.7s1.7-3.8,2.7-5.6c1.9-3.7,4.1-7.2,6.5-10.6c1.2-1.7,2.5-3.3,3.9-4.9
	c1.4-1.6,2.8-3.1,4.3-4.6s3-2.9,4.7-4.3c1.6-1.4,3.3-2.6,5-3.8c1.7-1.2,3.5-2.3,5.4-3.4c1.9-1,3.7-2,5.7-2.8
	c1.9-0.9,3.9-1.6,5.9-2.3c2-0.7,4-1.2,6.1-1.7L58.1,4c1.9-0.5,3.8-1.1,5.8-1.6c2-0.4,3.9-0.9,5.9-1.2l3-0.5l3-0.3c2-0.3,4-0.3,6-0.4
	c2,0,4-0.1,6.1,0.1l3,0.2l3,0.3c2,0.3,4,0.6,6,1s3.9,0.9,5.9,1.5c1.9,0.6,3.8,1.2,5.7,1.9c1.9,0.7,3.7,1.5,5.5,2.4s3.6,1.8,5.3,2.7
	c1.7,1,3.4,2,5.1,3.1s3.3,2.2,4.9,3.4c1.6,1.2,3.1,2.4,4.6,3.8c1.5,1.3,3,2.7,4.4,4.1c1.4,1.4,2.7,2.8,4.2,4.6l-6.3-0.3
	c1.9-1.9,3.8-3.8,5.8-5.6s4-3.6,6.2-5.3c2.1-1.7,4.3-3.3,6.6-4.8c2.2-1.5,4.6-3,7-4.3c4.8-2.7,9.9-4.9,15.2-6.4
	c5.3-1.5,10.9-2.2,16.4-2s11,1.4,16.1,3.4s9.8,4.9,13.9,8.3c4.2,3.4,7.9,7.3,10.9,11.7c1.5,2.2,2.9,4.5,4.1,6.8
	C242.3,33.3,243.3,35.8,243.5,38.4z"/>
<g>
	<polygon class="st0" points="36,132.4 36,128.5 258.2,127.1 257.5,58.9 298,118.5 297.7,58.7 301.5,58.6 301.9,131.1 261.5,71.6 
		262.1,130.9 	"/>
</g>
</svg>
